{
  "asset": {
    "version": "2.0",
    "generator": "THREE.GLTFExporter"
  },
  "scenes": [
    {
      "name": "AuxScene",
      "nodes": [
        9
      ]
    }
  ],
  "scene": 0,
  "nodes": [
    {
      "name": "object_0",
      "mesh": 0
    },
    {
      "name": "object_1",
      "mesh": 1
    },
    {
      "name": "object_2",
      "mesh": 2
    },
    {
      "name": "object_3",
      "mesh": 3
    },
    {
      "name": "object_4",
      "mesh": 4
    },
    {
      "name": "object_5",
      "mesh": 5
    },
    {
      "name": "object_6",
      "mesh": 6
    },
    {
      "name": "object_7",
      "mesh": 7
    },
    {
      "name": "object_8",
      "mesh": 8
    },
    {
      "children": [
        0,
        1,
        2,
        3,
        4,
        5,
        6,
        7,
        8
      ]
    }
  ],
  "bufferViews": [
    {
      "buffer": 0,
      "byteOffset": 0,
      "byteLength": 113760,
      "target": 34962,
      "byteStride": 12
    },
    {
      "buffer": 0,
      "byteOffset": 113760,
      "byteLength": 113760,
      "target": 34962,
      "byteStride": 12
    },
    {
      "buffer": 0,
      "byteOffset": 227520,
      "byteLength": 75840,
      "target": 34962,
      "byteStride": 8
    },
    {
      "buffer": 0,
      "byteOffset": 303360,
      "byteLength": 20448,
      "target": 34962,
      "byteStride": 12
    },
    {
      "buffer": 0,
      "byteOffset": 323808,
      "byteLength": 20448,
      "target": 34962,
      "byteStride": 12
    },
    {
      "buffer": 0,
      "byteOffset": 344256,
      "byteLength": 13632,
      "target": 34962,
      "byteStride": 8
    },
    {
      "buffer": 0,
      "byteOffset": 357888,
      "byteLength": 73728,
      "target": 34962,
      "byteStride": 12
    },
    {
      "buffer": 0,
      "byteOffset": 431616,
      "byteLength": 73728,
      "target": 34962,
      "byteStride": 12
    },
    {
      "buffer": 0,
      "byteOffset": 505344,
      "byteLength": 49152,
      "target": 34962,
      "byteStride": 8
    },
    {
      "buffer": 0,
      "byteOffset": 554496,
      "byteLength": 367488,
      "target": 34962,
      "byteStride": 12
    },
    {
      "buffer": 0,
      "byteOffset": 921984,
      "byteLength": 367488,
      "target": 34962,
      "byteStride": 12
    },
    {
      "buffer": 0,
      "byteOffset": 1289472,
      "byteLength": 244992,
      "target": 34962,
      "byteStride": 8
    },
    {
      "buffer": 0,
      "byteOffset": 1534464,
      "byteLength": 34560,
      "target": 34962,
      "byteStride": 12
    },
    {
      "buffer": 0,
      "byteOffset": 1569024,
      "byteLength": 34560,
      "target": 34962,
      "byteStride": 12
    },
    {
      "buffer": 0,
      "byteOffset": 1603584,
      "byteLength": 23040,
      "target": 34962,
      "byteStride": 8
    },
    {
      "buffer": 0,
      "byteOffset": 1626624,
      "byteLength": 25920,
      "target": 34962,
      "byteStride": 12
    },
    {
      "buffer": 0,
      "byteOffset": 1652544,
      "byteLength": 25920,
      "target": 34962,
      "byteStride": 12
    },
    {
      "buffer": 0,
      "byteOffset": 1678464,
      "byteLength": 17280,
      "target": 34962,
      "byteStride": 8
    },
    {
      "buffer": 0,
      "byteOffset": 1695744,
      "byteLength": 69120,
      "target": 34962,
      "byteStride": 12
    },
    {
      "buffer": 0,
      "byteOffset": 1764864,
      "byteLength": 69120,
      "target": 34962,
      "byteStride": 12
    },
    {
      "buffer": 0,
      "byteOffset": 1833984,
      "byteLength": 46080,
      "target": 34962,
      "byteStride": 8
    },
    {
      "buffer": 0,
      "byteOffset": 1880064,
      "byteLength": 41472,
      "target": 34962,
      "byteStride": 12
    },
    {
      "buffer": 0,
      "byteOffset": 1921536,
      "byteLength": 41472,
      "target": 34962,
      "byteStride": 12
    },
    {
      "buffer": 0,
      "byteOffset": 1963008,
      "byteLength": 27648,
      "target": 34962,
      "byteStride": 8
    },
    {
      "buffer": 0,
      "byteOffset": 1990656,
      "byteLength": 18360,
      "target": 34962,
      "byteStride": 12
    },
    {
      "buffer": 0,
      "byteOffset": 2009016,
      "byteLength": 18360,
      "target": 34962,
      "byteStride": 12
    },
    {
      "buffer": 0,
      "byteOffset": 2027376,
      "byteLength": 12240,
      "target": 34962,
      "byteStride": 8
    }
  ],
  "buffers": [
    {
      "byteLength": 2039616,
      "uri": "data:application/octet-stream;base64,"
    }
  ],
  "accessors": [
    {
      "bufferView": 0,
      "componentType": 5126,
      "count": 9480,
      "max": [
        0.7351464033126831,
        0.6403086185455322,
        0.4774788022041321
      ],
      "min": [
        -0.7211959362030029,
        -0.5938220024108887,
        -0.8414533138275146
      ],
      "type": "VEC3"
    },
    {
      "bufferView": 1,
      "componentType": 5126,
      "count": 9480,
      "max": [
        0.9999802708625793,
        0.9999802708625793,
        1
      ],
      "min": [
        -0.9999802708625793,
        -0.8563365340232849,
        -1
      ],
      "type": "VEC3"
    },
    {
      "bufferView": 2,
      "componentType": 5126,
      "count": 9480,
      "max": [
        null,
        null
      ],
      "min": [
        null,
        null
      ],
      "type": "VEC2"
    },
    {
      "bufferView": 3,
      "componentType": 5126,
      "count": 1704,
      "max": [
        0.49728909134864807,
        -0.4154069721698761,
        0.30569717288017273
      ],
      "min": [
        -0.4823799431324005,
        -0.6403051018714905,
        -0.5395921468734741
      ],
      "type": "VEC3"
    },
    {
      "bufferView": 4,
      "componentType": 5126,
      "count": 1704,
      "max": [
        0.541269838809967,
        0.052681777626276016,
        0.9987438917160034
      ],
      "min": [
        -0.541269838809967,
        -0.9999802708625793,
        -0.4337635040283203
      ],
      "type": "VEC3"
    },
    {
      "bufferView": 5,
      "componentType": 5126,
      "count": 1704,
      "max": [
        null,
        null
      ],
      "min": [
        null,
        null
      ],
      "type": "VEC2"
    },
    {
      "bufferView": 6,
      "componentType": 5126,
      "count": 6144,
      "max": [
        0.5087748765945435,
        -0.2765791416168213,
        0.47826069593429565
      ],
      "min": [
        -0.49482354521751404,
        -0.5988985896110535,
        -0.5540451407432556
      ],
      "type": "VEC3"
    },
    {
      "bufferView": 7,
      "componentType": 5126,
      "count": 6144,
      "max": [
        0.9907993674278259,
        0.9970026016235352,
        0.9980147480964661
      ],
      "min": [
        -0.9903814792633057,
        -0.9999693036079407,
        -0.9980533123016357
      ],
      "type": "VEC3"
    },
    {
      "bufferView": 8,
      "componentType": 5126,
      "count": 6144,
      "max": [
        null,
        null
      ],
      "min": [
        null,
        null
      ],
      "type": "VEC2"
    },
    {
      "bufferView": 9,
      "componentType": 5126,
      "count": 30624,
      "max": [
        0.34361767768859863,
        -0.2801220417022705,
        0.5620764493942261
      ],
      "min": [
        -0.6240730881690979,
        -0.6497081518173218,
        -0.37136080861091614
      ],
      "type": "VEC3"
    },
    {
      "bufferView": 10,
      "componentType": 5126,
      "count": 30624,
      "max": [
        0.9959117770195007,
        1,
        1
      ],
      "min": [
        -0.9956216216087341,
        -1,
        -1
      ],
      "type": "VEC3"
    },
    {
      "bufferView": 11,
      "componentType": 5126,
      "count": 30624,
      "max": [
        null,
        null
      ],
      "min": [
        null,
        null
      ],
      "type": "VEC2"
    },
    {
      "bufferView": 12,
      "componentType": 5126,
      "count": 2880,
      "max": [
        0.3297378420829773,
        0.3199913203716278,
        0.5564071536064148
      ],
      "min": [
        -0.3102509379386902,
        -0.3199974596500397,
        -0.08357527107000351
      ],
      "type": "VEC3"
    },
    {
      "bufferView": 13,
      "componentType": 5126,
      "count": 2880,
      "max": [
        0.999997615814209,
        0.999997615814209,
        1
      ],
      "min": [
        -0.999997615814209,
        -0.999997615814209,
        -1
      ],
      "type": "VEC3"
    },
    {
      "bufferView": 14,
      "componentType": 5126,
      "count": 2880,
      "max": [
        null,
        null
      ],
      "min": [
        null,
        null
      ],
      "type": "VEC2"
    },
    {
      "bufferView": 15,
      "componentType": 5126,
      "count": 2160,
      "max": [
        0.1501217931509018,
        0.010292117483913898,
        0.7845394015312195
      ],
      "min": [
        -0.18687906861305237,
        -0.010292036458849907,
        0.5267575979232788
      ],
      "type": "VEC3"
    },
    {
      "bufferView": 16,
      "componentType": 5126,
      "count": 2160,
      "max": [
        0.999997615814209,
        0.9599390625953674,
        0.9986007213592529
      ],
      "min": [
        -0.999997615814209,
        -0.9599391222000122,
        -0.9986007213592529
      ],
      "type": "VEC3"
    },
    {
      "bufferView": 17,
      "componentType": 5126,
      "count": 2160,
      "max": [
        null,
        null
      ],
      "min": [
        null,
        null
      ],
      "type": "VEC2"
    },
    {
      "bufferView": 18,
      "componentType": 5126,
      "count": 5760,
      "max": [
        0.2102174162864685,
        0.07157465815544128,
        0.8791465759277344
      ],
      "min": [
        -0.27932852506637573,
        -0.07157602906227112,
        0.6644091606140137
      ],
      "type": "VEC3"
    },
    {
      "bufferView": 19,
      "componentType": 5126,
      "count": 5760,
      "max": [
        0.999997615814209,
        0.999997615814209,
        1
      ],
      "min": [
        -0.999997615814209,
        -0.999997615814209,
        -1
      ],
      "type": "VEC3"
    },
    {
      "bufferView": 20,
      "componentType": 5126,
      "count": 5760,
      "max": [
        null,
        null
      ],
      "min": [
        null,
        null
      ],
      "type": "VEC2"
    },
    {
      "bufferView": 21,
      "componentType": 5126,
      "count": 3456,
      "max": [
        -0.3796517848968506,
        -0.31090080738067627,
        0.376424103975296
      ],
      "min": [
        -0.4893268346786499,
        -0.43474724888801575,
        0.30554497241973877
      ],
      "type": "VEC3"
    },
    {
      "bufferView": 22,
      "componentType": 5126,
      "count": 3456,
      "max": [
        0.9996242523193359,
        0.9995693564414978,
        0.9999651908874512
      ],
      "min": [
        -0.999592661857605,
        -0.9996514320373535,
        -0.9999511241912842
      ],
      "type": "VEC3"
    },
    {
      "bufferView": 23,
      "componentType": 5126,
      "count": 3456,
      "max": [
        null,
        null
      ],
      "min": [
        null,
        null
      ],
      "type": "VEC2"
    },
    {
      "bufferView": 24,
      "componentType": 5126,
      "count": 1530,
      "max": [
        -0.40308088064193726,
        -0.2506093680858612,
        0.3803894519805908
      ],
      "min": [
        -0.6456466317176819,
        -0.49404287338256836,
        0.17398080229759216
      ],
      "type": "VEC3"
    },
    {
      "bufferView": 25,
      "componentType": 5126,
      "count": 1530,
      "max": [
        0.9660659432411194,
        0.9660531282424927,
        0.9975683093070984
      ],
      "min": [
        -0.9956216216087341,
        -0.9979478120803833,
        -0.9788724184036255
      ],
      "type": "VEC3"
    },
    {
      "bufferView": 26,
      "componentType": 5126,
      "count": 1530,
      "max": [
        null,
        null
      ],
      "min": [
        null,
        null
      ],
      "type": "VEC2"
    }
  ],
  "materials": [
    {
      "pbrMetallicRoughness": {
        "metallicFactor": 0.5,
        "roughnessFactor": 0.5
      },
      "name": "object_0"
    },
    {
      "pbrMetallicRoughness": {
        "metallicFactor": 0.5,
        "roughnessFactor": 0.5
      },
      "name": "object_1"
    },
    {
      "pbrMetallicRoughness": {
        "metallicFactor": 0.5,
        "roughnessFactor": 0.5
      },
      "name": "object_2"
    },
    {
      "pbrMetallicRoughness": {
        "metallicFactor": 0.5,
        "roughnessFactor": 0.5
      },
      "name": "object_3"
    },
    {
      "pbrMetallicRoughness": {
        "metallicFactor": 0.5,
        "roughnessFactor": 0.5
      },
      "name": "object_4"
    },
    {
      "pbrMetallicRoughness": {
        "metallicFactor": 0.5,
        "roughnessFactor": 0.5
      },
      "name": "object_5"
    },
    {
      "pbrMetallicRoughness": {
        "metallicFactor": 0.5,
        "roughnessFactor": 0.5
      },
      "name": "object_6"
    },
    {
      "pbrMetallicRoughness": {
        "metallicFactor": 0.5,
        "roughnessFactor": 0.5
      },
      "name": "object_7"
    },
    {
      "pbrMetallicRoughness": {
        "metallicFactor": 0.5,
        "roughnessFactor": 0.5
      },
      "name": "object_8"
    }
  ],
  "meshes": [
    {
      "primitives": [
        {
          "mode": 4,
          "attributes": {
            "POSITION": 0,
            "NORMAL": 1,
            "TEXCOORD_0": 2
          },
          "material": 0
        }
      ]
    },
    {
      "primitives": [
        {
          "mode": 4,
          "attributes": {
            "POSITION": 3,
            "NORMAL": 4,
            "TEXCOORD_0": 5
          },
          "material": 1
        }
      ]
    },
    {
      "primitives": [
        {
          "mode": 4,
          "attributes": {
            "POSITION": 6,
            "NORMAL": 7,
            "TEXCOORD_0": 8
          },
          "material": 2
        }
      ]
    },
    {
      "primitives": [
        {
          "mode": 4,
          "attributes": {
            "POSITION": 9,
            "NORMAL": 10,
            "TEXCOORD_0": 11
          },
          "material": 3
        }
      ]
    },
    {
      "primitives": [
        {
          "mode": 4,
          "attributes": {
            "POSITION": 12,
            "NORMAL": 13,
            "TEXCOORD_0": 14
          },
          "material": 4
        }
      ]
    },
    {
      "primitives": [
        {
          "mode": 4,
          "attributes": {
            "POSITION": 15,
            "NORMAL": 16,
            "TEXCOORD_0": 17
          },
          "material": 5
        }
      ]
    },
    {
      "primitives": [
        {
          "mode": 4,
          "attributes": {
            "POSITION": 18,
            "NORMAL": 19,
            "TEXCOORD_0": 20
          },
          "material": 6
        }
      ]
    },
    {
      "primitives": [
        {
          "mode": 4,
          "attributes": {
            "POSITION": 21,
            "NORMAL": 22,
            "TEXCOORD_0": 23
          },
          "material": 7
        }
      ]
    },
    {
      "primitives": [
        {
          "mode": 4,
          "attributes": {
            "POSITION": 24,
            "NORMAL": 25,
            "TEXCOORD_0": 26
          },
          "material": 8
        }
      ]
    }
  ]
}